<?xml version="1.0" standalone="no"?>
<!DOCTYPE svg PUBLIC "-//W3C//DTD SVG 20010904//EN"
 "http://www.w3.org/TR/2001/REC-SVG-20010904/DTD/svg10.dtd">
<svg version="1.0" xmlns="http://www.w3.org/2000/svg"
 width="260.000000pt" height="260.000000pt" viewBox="0 0 260.000000 260.000000"
 preserveAspectRatio="xMidYMid meet">
<metadata>
Created by potrace 1.11, written by Peter Selinger 2001-2013
</metadata>
<g transform="translate(0.000000,260.000000) scale(0.100000,-0.100000)"
fill="#000000" stroke="none">
<path d="M650 2040 c-153 -27 -280 -91 -393 -199 -115 -109 -189 -239 -222
-391 -13 -63 -14 -280 -1 -325 3 -11 10 -40 16 -64 16 -66 78 -184 132 -251
158 -194 430 -306 673 -275 l55 6 0 284 0 284 -41 -14 c-177 -63 -338 85 -280
257 15 47 88 113 137 127 113 31 198 -10 248 -119 19 -43 20 -64 21 -420 l1
-375 275 -3 274 -2 0 95 -1 95 36 -33 c67 -64 85 -78 135 -107 68 -39 144 -68
202 -77 59 -9 206 -10 253 -1 199 36 380 215 406 400 20 145 -8 265 -90 391
l-31 47 -205 0 -205 0 0 -165 0 -165 65 0 c71 -1 100 -15 100 -48 0 -48 -50
-68 -143 -58 -198 20 -309 187 -273 411 30 187 236 306 431 250 33 -10 66 -22
73 -28 10 -8 12 33 10 209 l-3 219 -38 12 c-63 21 -88 25 -182 28 -155 6 -289
-30 -408 -109 -65 -43 -158 -133 -195 -188 -13 -21 -27 -38 -31 -38 -3 0 -17
18 -30 40 -70 114 -206 218 -345 265 -112 38 -314 55 -426 35z"/>
</g>
</svg>
